<svg xmlns="http://www.w3.org/2000/svg" viewBox="0 0 800 500" width="800" height="500" role="img">
  <defs>
    <linearGradient id="wash" x1="0" y1="0" x2="0.4" y2="1">
      <stop offset="0" stop-color="#184827"/>
      <stop offset="1" stop-color="#1f5c31"/>
    </linearGradient>
  </defs>

  <rect width="800" height="500" fill="url(#wash)"/>
  <circle cx="187" cy="173" r="209" fill="#ffffff" opacity="0.07"/>
  <circle cx="669.1" cy="413.5" r="167.2" fill="#63a874" opacity="0.1"/>
  <circle cx="400" cy="250" r="222" fill="#8fca92" opacity="0.22"/>
  <circle cx="400" cy="250" r="212" fill="#fdfaf4"/>
  <ellipse cx="400" cy="382" rx="150" ry="20" fill="#000" opacity="0.07"/>
<g transform="translate(400 250) scale(1.05) translate(-400 -320)"
   stroke="#0e2916" stroke-width="8.57" stroke-linejoin="round" stroke-linecap="round">
<g transform="translate(400 430) rotate(-38)">
        <path d="M0 0 C -46 -121.55 -40 -221 0 -247 C 40 -221 46 -121.55 0 0 Z" fill="#2f7a44"/>
        <path d="M0 -6 L0 -231" stroke="#63a874" stroke-width="4" stroke-linecap="round" opacity="0.75"/>
      </g><g transform="translate(400 430) rotate(-18)">
        <path d="M0 0 C -46 -125.4 -40 -228 0 -254 C 40 -228 46 -125.4 0 0 Z" fill="#1f5c31"/>
        <path d="M0 -6 L0 -238" stroke="#63a874" stroke-width="4" stroke-linecap="round" opacity="0.75"/>
      </g><g transform="translate(400 430) rotate(0)">
        <path d="M0 0 C -46 -107.25 -40 -195 0 -221 C 40 -195 46 -107.25 0 0 Z" fill="#2f7a44"/>
        <path d="M0 -6 L0 -205" stroke="#63a874" stroke-width="4" stroke-linecap="round" opacity="0.75"/>
      </g><g transform="translate(400 430) rotate(18)">
        <path d="M0 0 C -46 -111.1 -40 -202 0 -228 C 40 -202 46 -111.1 0 0 Z" fill="#1f5c31"/>
        <path d="M0 -6 L0 -212" stroke="#63a874" stroke-width="4" stroke-linecap="round" opacity="0.75"/>
      </g><g transform="translate(400 430) rotate(38)">
        <path d="M0 0 C -46 -114.95 -40 -209 0 -235 C 40 -209 46 -114.95 0 0 Z" fill="#2f7a44"/>
        <path d="M0 -6 L0 -219" stroke="#63a874" stroke-width="4" stroke-linecap="round" opacity="0.75"/>
      </g>
</g>
</svg>