<svg xmlns="http://www.w3.org/2000/svg" viewBox="0 0 800 600" role="img" aria-label="Field at harvest">
  <rect width="800" height="600" fill="#fdf0e2"/>
  <circle cx="640" cy="130" r="78" fill="#e98a3c"/>
  <path d="M0 380c120-52 220-52 330-14s210 44 330-6c60-24 100-40 140-56v296H0z" fill="#4b8f5e"/>
  <path d="M0 452c140-44 250-30 360 4s220 40 340-10c40-16 70-26 100-36v190H0z" fill="#326241"/>
  <g fill="#22422c">
    <rect x="90" y="470" width="10" height="86" rx="5"/>
    <rect x="240" y="490" width="10" height="66" rx="5"/>
    <rect x="470" y="482" width="10" height="74" rx="5"/>
    <rect x="640" y="500" width="10" height="56" rx="5"/>
  </g>
  <rect x="0" y="556" width="800" height="44" fill="#2a5136"/>
</svg>
